<svg xmlns="http://www.w3.org/2000/svg" xmlns:xlink="http://www.w3.org/1999/xlink" version="1.1" id="Capa_1" x="0px" y="0px" viewBox="0 0 511.998 511.998" style="enable-background:new 0 0 511.998 511.998;" xml:space="preserve" width="512px" height="512px"><g><path d="M511.189,259.954c1.649-3.989,0.731-8.579-2.325-11.627l-192-192  c-4.237-4.093-10.99-3.975-15.083,0.262c-3.992,4.134-3.992,10.687,0,14.82l173.803,173.803H10.667  C4.776,245.212,0,249.988,0,255.879s4.776,10.667,10.667,10.667h464.917L301.803,440.327c-4.237,4.093-4.355,10.845-0.262,15.083  c4.093,4.237,10.845,4.354,15.083,0.262c0.089-0.086,0.176-0.173,0.262-0.262l192-192  C509.872,262.42,510.655,261.245,511.189,259.954z" data-original="#2196F3" class="active-path" data-old_color="#2196F3" fill="#F4AB8F"/></g> </svg>
